<?xml version="1.0" encoding="utf-8"?>
<!-- Generator: Adobe Adobe Illustrator 24.2.0, SVG Export Plug-In . SVG Version: 6.00 Build 0)  -->
<svg version="1.1" id="Layer_1" xmlns="http://www.w3.org/2000/svg" xmlns:xlink="http://www.w3.org/1999/xlink" x="0px" y="0px"
	 viewBox="0 0 1728 1296" style="enable-background:new 0 0 1728 1296;" xml:space="preserve">
<style type="text/css">
	.st0{fill:#07323E;}
	.st1{fill:#16522E;}
	.st2{fill:#E8A43D;}
	.st3{fill:#2F6431;}
</style>
<path class="st0" d="M766.79,774.68c-5.09-2.08-166.95-21.89-173.43-21.83c-5.56,0.05-11.12,0.22-17.05,0.42
	c-1.36-0.05-2.35-0.19-3.49-0.61c-0.74-0.45-1.33-0.62-1.93-0.78c-0.36-0.53-0.71-1.06-1.12-1.93c6.6-4.89,13.32-9.36,19.88-14.04
	c15.64-11.14,31.2-22.39,46.81-33.58c18.38-13.18,36.84-26.23,55.13-39.53c15.53-11.29,30.78-22.96,46.3-34.26
	c5.79-4.22,11.88-8.08,18.07-11.7c11.3-6.61,22.9-7.29,34.91-1.5c12.35,5.96,23.91,13.09,34.55,21.73c4.68,3.8,4.75,3.84,9.49,0.01
	c13.69-11.07,27.3-22.23,41.05-33.23c14.17-11.33,28.45-22.52,42.7-33.73c5.57-4.38,11.82-7.64,18.72-9.09
	c9.32-1.96,17.89,0.88,25.41,6.22c7.9,5.6,15.48,11.67,22.93,17.86c12.99,10.79,25.79,21.81,38.65,32.76
	c9.58,8.16,19.11,16.37,28.68,24.54c3.55,3.03,7.23,5.93,10.69,9.06c1.93,1.75,4.08,1.93,6.48,1.92
	c39.23-0.09,78.45-0.03,117.68-0.25c31.67-0.18,63.33-0.69,95-1.04c2.7-0.03,5.4-0.14,8.1-0.03c5.08,0.2,8.23,3.36,8.57,8.5
	c0.11,1.61,0.08,3.24,0.08,4.86c-0.01,16.01,0.21,32.03-0.11,48.04c-0.26,13.48-0.75,26.98-1.85,40.41
	c-1.19,14.47-2.78,28.94-4.98,43.3c-2.06,13.44-4.88,26.77-7.82,40.05c-9.13,41.23-24.91,79.9-45.92,116.43
	c-11.11,19.31-23.89,37.52-38.2,54.64c-17.59,21.05-37.2,40-58.9,56.78c-3.09,2.39-6.33,4.6-9.89,6.95
	c-3.55-4.47-6.63-9.05-9.88-13.5c-6.52-8.94-13.11-17.84-19.73-26.71c-5.23-7-10.56-13.93-15.82-20.91
	c-6-7.97-11.89-16.04-17.97-23.95c-4.45-5.78-9.13-11.39-13.95-17.54c0.05-1.1,0.35-1.73,0.98-2.5
	c15.05-13.03,28.1-27.48,40.16-42.87c9.33-11.9,17.61-24.53,24.72-37.84c6.15-11.51,11.57-23.42,17.61-35.4
	c4.22-11.89,8.18-23.53,12.02-35.21c0.53-1.62,3.68-13.07,5.26-18.86c1.6-5.87,5.38-34.62,5.15-38.68
	c-0.22-3.89-2.62-10.96-5.77-14.12c-1.43-1.43-8.06-1.48-10.59-1.09c-8.6,0.99-9.06,0.05-16.97,1.6c-7.92,1.23-9.64,0.99-18.96,2.81
	c-0.42,0.08-14.51,1.39-19.44,2.29c-3.42,0.63-18.14,1.46-21.64,2.3c-0.57,0.14-19.15,3.51-23.67,4.17
	c-2.72,0.4-28.4,6.16-29.21,6.35c-3.46,0.83-75.35,18.34-87.29,22.78c-0.43,0.16-14.2,4.28-15.67,4.92
	c-10.21,4.49-31.3,10.89-43.31,17.36"/>
<path class="st1" d="M1132.08,1072.06c-6.64,4.83-13.06,10.01-19.97,14.42c-21.67,13.82-44.42,25.62-68.38,35
	c-19.02,7.45-38.37,13.91-58.4,18.08c-11.91,2.48-23.89,4.74-35.91,6.6c-12.22,1.89-24.5,3.77-36.82,4.57
	c-13.27,0.85-26.62,0.48-39.94,0.55c-7.02,0.04-14.06,0.2-21.05-0.26c-10.02-0.65-20.03-1.65-30.01-2.81
	c-8.37-0.98-16.73-2.16-25.01-3.7c-10.38-1.94-20.74-4.04-30.97-6.61c-11.98-3.02-23.84-6.5-35.69-9.99
	c-17.57-5.18-34.53-11.98-51.18-19.57c-26.55-12.1-51.64-26.75-75.05-44.1c-24.9-18.46-47.74-39.23-68.5-62.35
	c-16.51-18.38-31.35-37.94-44.63-58.71c-13.84-21.64-25.54-44.46-35.31-68.2c-7.98-19.38-14.71-39.23-19.34-59.71
	c-2.41-10.64-4.68-21.31-6.65-32.04c-1.82-9.87-3.57-19.79-4.59-29.77c-1.18-11.6-1.94-23.29-2.16-34.95
	c-0.3-16.19-0.49-32.42,0.34-48.58c0.68-13.23,2.78-26.4,4.49-39.56c0.9-6.93,2.13-13.83,3.57-20.67
	c2.24-10.68,4.28-21.45,7.3-31.92c6.07-21,13.46-41.55,22.75-61.4c11.67-24.95,25.46-48.6,41.7-70.87
	c12.85-17.61,26.76-34.3,42.19-49.66c11.34-11.29,23.26-21.94,35.8-31.94c14.91-11.9,30.49-22.77,46.78-32.66
	c18.75-11.4,38.36-21.12,58.9-28.76c14.58-5.43,29.32-10.54,44.27-14.8c13.25-3.77,26.81-6.59,40.38-9.07
	c14.11-2.58,28.35-4.72,42.62-6.18c13.22-1.35,26.55-1.59,39.83-2.24c18.38-0.89,36.7,0.74,54.96,2.22
	c13.92,1.13,27.78,3.51,41.55,5.99c14.28,2.57,28.62,5.21,42.57,9.1c16.01,4.47,31.82,9.84,47.38,15.72
	c38.52,14.58,73.94,34.81,106.38,60.2c21.44,16.77,41.4,35.11,59.2,55.76c4.81,5.58,9.78,11.03,14.58,16.62
	c1.85,2.16,3.43,4.54,5.48,7.28c-1.53,1.21-2.65,2.28-3.93,3.09c-22.29,14.11-44.64,28.12-66.89,42.29
	c-14.98,9.54-29.84,19.28-44.74,28.94c-0.9,0.59-1.82,1.16-2.68,1.81c-2.36,1.78-4.2,1.23-5.98-1c-3.7-4.63-7.57-9.12-11.31-13.72
	c-26.69-32.79-59.51-57.57-97.96-74.96c-17.85-8.07-36.32-14.49-55.45-18.67c-16.45-3.59-32.97-7.04-49.93-7.49
	c-10.06-0.26-20.12-1.5-30.16-1.24c-12.19,0.32-24.36,1.77-36.54,2.69c-13.83,1.05-27.3,4.15-40.72,7.38
	c-7.83,1.88-15.55,4.36-23.12,7.13c-19.62,7.16-38.26,16.33-55.77,27.77c-23.16,15.12-43.8,33.02-62.29,53.67
	c-17.82,19.9-31.61,42.12-42.18,66.51c-5.99,13.83-11.56,27.82-15.36,42.41c-2.89,11.07-5.39,22.25-7.73,33.46
	c-5.27,25.32-6.21,50.96-4.97,76.7c0.46,9.67,0.9,36.55,3.12,37.69c0.34,2.79,0.51,5.16,0.59,7.94c0.27,1.08,0.62,1.77,1.12,2.85
	c0.24,3.65,0.41,6.86,2.97,9.6c1.7,0,3.49,0.02,5.27,0c27.68-0.27,55.35-0.15,82.88,3.32c12.61,1.59,25.24,3.08,37.77,5.12
	c11.63,1.9,23.22,4.18,34.71,6.83c13.21,3.04,26.31,6.59,39.41,10.07c18.16,4.82,35.75,11.37,53.09,18.51
	c35.94,14.8,69.7,33.61,101.28,56.28c22.21,15.94,43.46,33.01,62.84,52.36c14.38,14.36,28.26,29.15,40.46,45.44
	c2.81,3.75,4.56,4.27,8.65,1.88c4.32-2.53,8.42-5.42,13-8c4.95,5.83,9.64,11.44,14.08,17.22c6.08,7.91,11.97,15.97,17.97,23.95
	c5.25,6.98,10.59,13.9,15.82,20.91c6.62,8.87,13.2,17.77,19.73,26.71C1125.84,1062.96,1128.93,1067.54,1132.08,1072.06z
	 M708.3,872.29c7.25,3.55,14.57,6.99,21.75,10.68c25.32,13.02,49.09,28.49,71.97,45.4c18.11,13.39,35.28,27.87,51.32,43.64
	c15.54,15.27,29.68,31.82,42.28,49.62c1.68,2.37,3.32,3.43,6.18,3.08c7.31-0.9,14.69-1.28,21.94-2.53
	c10.07-1.73,20.1-3.83,30.03-6.27c3.61-0.88,7.81-0.98,10.73-4.14c-0.53-0.85-0.87-1.48-1.29-2.05
	c-13-17.47-27.02-34.11-41.71-50.15c-14.96-16.34-31.78-30.65-49.59-43.78c-11.2-8.26-22.52-16.36-33.9-24.36
	c-6.7-4.71-13.45-9.4-20.52-13.5c-9.51-5.52-19.28-10.6-29.06-15.63c-10.91-5.61-21.8-11.32-32.99-16.31
	c-10.2-4.55-20.74-8.39-31.26-12.15c-6.35-2.27-13.01-3.68-19.45-5.73c-5.56-1.77-10.9-4.35-16.53-5.78
	c-13.55-3.44-27.17-6.61-40.84-9.49c-8.42-1.78-16.98-2.89-25.5-4.17c-7.1-1.07-14.2-2.1-21.34-2.85
	c-6.19-0.66-12.42-0.9-19.48-1.38c3.66,9.2,6.92,17.68,10.48,26.04c0.59,1.39,2.32,2.88,3.78,3.23
	c20.59,4.91,41.01,10.38,61.04,17.27C673.78,856.98,690.89,863.94,708.3,872.29z M776.24,985.75c-3.87-3.74-7.82-7.41-11.6-11.24
	c-13.61-13.79-28.89-25.63-43.95-37.71c-6.68-5.35-13.81-10.15-20.85-15.04c-25.7-17.88-52.58-33.66-81.6-45.63
	c-1.01-0.42-2.14-0.56-4.28-1.11c1.63,2.79,2.65,4.64,3.77,6.44c8.94,14.39,19.43,27.61,30.6,40.29c16.92,19.2,36,35.98,57.21,50.36
	c25.38,17.2,52.8,29.73,82.63,36.9c3.11,0.75,6.32,1.12,9.48,1.66c0.16-0.33,0.31-0.65,0.47-0.98
	C791.01,1001.88,783.9,994.09,776.24,985.75z"/>
<path class="st2" d="M851.84,502.44c16.44,11.15,28.81,25.35,37.08,42.97c2.95,6.29,5.09,12.96,7.66,19.44
	c0.77,1.93,0.49,3.47-1.14,4.79c-0.97,0.79-1.82,1.74-2.8,2.52c-15.59,12.37-31.2,24.73-46.81,37.08c-5.06,4-10.16,7.95-15.55,12.18
	c-4.41-3.05-8.54-6.13-12.88-8.87c-9.42-5.96-19.33-10.86-29.98-14.34c-8.75-2.85-17.25-2.29-25.89,0.33
	c-10.3,3.12-19.11,8.93-27.83,14.92c-14.04,9.65-28,19.42-42.33,29.38c-0.71-0.86-1.71-1.66-2.18-2.7
	c-5.65-12.28-9.45-24.95-10.38-38.63c-0.61-9.05-0.57-18.03,0.62-26.86c1.38-10.26,4.58-20.19,9.47-29.48
	c5.72-10.86,12.2-21.19,21.08-29.74c12.56-12.09,26.9-21.29,43.63-26.73c14.51-4.72,29.32-7.18,44.48-5.77
	c11.92,1.11,23.68,3.78,34.57,9.06C839.1,495.09,845.26,498.77,851.84,502.44z"/>
<path class="st2" d="M707.95,872.1c-17.06-8.16-34.16-15.11-51.66-21.13c-20.03-6.89-40.45-12.36-61.04-17.27
	c-1.46-0.35-3.19-1.84-3.78-3.23c-3.56-8.36-6.82-16.84-10.48-26.04c7.06,0.48,13.29,0.73,19.48,1.38
	c7.13,0.75,14.24,1.79,21.34,2.85c8.52,1.28,17.08,2.4,25.5,4.17c13.67,2.88,27.3,6.06,40.84,9.49c5.64,1.43,10.97,4.01,16.53,5.78
	c6.44,2.05,13.1,3.45,19.45,5.73c10.53,3.77,21.06,7.61,31.26,12.15c11.2,4.99,22.08,10.7,32.99,16.31
	c9.78,5.03,19.55,10.11,29.06,15.63c7.07,4.11,13.82,8.8,20.52,13.5c11.39,8,22.7,16.1,33.9,24.36
	c17.81,13.13,34.63,27.44,49.59,43.78c14.69,16.05,28.71,32.69,41.71,50.15c0.43,0.57,0.76,1.21,1.29,2.05
	c-2.93,3.16-7.12,3.25-10.73,4.14c-9.93,2.43-19.96,4.53-30.03,6.27c-7.24,1.25-14.63,1.63-21.94,2.53
	c-2.86,0.35-4.5-0.71-6.18-3.08c-12.6-17.8-26.74-34.35-42.28-49.62c-16.04-15.77-33.21-30.25-51.32-43.64
	c-22.88-16.91-46.65-32.38-71.97-45.4C722.87,879.28,715.56,875.85,707.95,872.1z"/>
<path class="st2" d="M776.51,986.02c7.39,8.07,14.5,15.86,21.61,23.65c-0.16,0.33-0.31,0.65-0.47,0.98
	c-3.16-0.54-6.37-0.91-9.48-1.66c-29.83-7.17-57.25-19.7-82.63-36.9c-21.21-14.38-40.29-31.16-57.21-50.36
	c-11.17-12.67-21.66-25.9-30.6-40.29c-1.12-1.8-2.14-3.65-3.77-6.44c2.14,0.54,3.27,0.69,4.28,1.11
	c29.01,11.97,55.89,27.75,81.6,45.63c7.04,4.89,14.17,9.69,20.85,15.04c15.06,12.08,30.34,23.93,43.95,37.71
	C768.41,978.34,772.36,982,776.51,986.02z"/>
<path class="st3" d="M950.04,863.72c-3.48-2.16-7.02-4.24-10.44-6.5c-11.65-7.71-23.26-15.47-34.86-23.26
	c-1.74-1.17-3.33-2.55-5.62-4.33c1.69-1.18,2.69-2.11,3.87-2.67c15.01-7.18,30.43-13.41,46.27-18.44
	c13.94-4.43,28.08-8.23,42.21-12.03c10.68-2.87,21.42-5.66,32.26-7.84c11.4-2.29,22.95-3.84,34.43-5.68
	c5.84-0.94,11.68-1.89,17.54-2.69c5.86-0.8,11.74-1.48,17.63-2.07c6.61-0.67,13.22-1.41,19.85-1.71c15.25-0.7,30.51-1.17,46.26-1.82
	c-0.75,7.19-1.99,14.47-3.81,21.73c-1.58-1.96-3.38-1.38-4.88-1.22c-5.35,0.58-10.74,1-16.01,2.05c-14.4,2.87-28.85,5.62-43.1,9.16
	c-25.61,6.36-50.57,14.81-75.08,24.57C993.53,840.14,970.99,850.33,950.04,863.72z"/>
<path class="st3" d="M1027.86,930.66c-1.01-0.72-2.2-1.28-2.99-2.19c-9.51-11.05-20.47-20.6-31.25-30.35
	c-0.93-0.84-1.73-1.81-2.54-3.37c2.87-3.42,5.5-6.41,8.53-8.92c23.74-19.56,50.3-34.51,78.33-46.88
	c15.58-6.87,31.37-13.31,47.23-19.52c8.49-3.32,17.33-5.75,26.01-8.59c-0.18,1.58-0.09,3.25-0.58,4.73
	c-3.84,11.68-7.8,23.32-12.42,35.19c-1.22,0.32-1.83,0.28-2.24,0.54c-9.18,5.93-18.3,11.95-27.51,17.85
	c-23.43,15.01-46.28,30.81-67.41,48.96C1036.45,922.07,1032.24,926.47,1027.86,930.66z"/>
<path class="st2" d="M1151.4,810.53c-8.89,3.15-17.73,5.58-26.22,8.91c-15.86,6.21-31.65,12.64-47.23,19.52
	c-28.03,12.36-54.58,27.32-78.33,46.88c-3.04,2.5-5.67,5.5-8.74,8.61c-4.26-2.56-8.3-5.43-12.27-8.39
	c-9.11-6.8-18.2-13.65-27.28-20.49c-0.41-0.31-0.69-0.81-1.17-1.52c20.82-13.7,43.36-23.89,66.38-33.06
	c24.51-9.76,49.48-18.21,75.08-24.57c14.25-3.54,28.69-6.29,43.1-9.16c5.26-1.05,10.66-1.47,16.01-2.05
	c1.5-0.16,3.31-0.74,4.56,1.51C1154.23,801.41,1152.92,805.81,1151.4,810.53z"/>
<path class="st2" d="M1027.89,931c4.35-4.53,8.56-8.93,13.15-12.87c21.13-18.15,43.98-33.96,67.41-48.96
	c9.2-5.89,18.33-11.92,27.51-17.85c0.41-0.27,1.03-0.22,1.94-0.3c-5.35,11.76-10.76,23.67-16.92,35.18
	c-7.11,13.31-15.4,25.94-24.72,37.84c-12.05,15.38-25.11,29.83-40.16,42.87c-4.32-5.08-8.24-10.36-12.33-15.5
	c-4.98-6.26-10.11-12.4-15.16-18.61C1028.28,932.38,1028.14,931.83,1027.89,931z"/>
</svg>
